<!--?xml version="1.0" encoding="UTF-8"?-->

<svg xmlns="http://www.w3.org/2000/svg" version="1.0" width="225.000000pt" height="225.000000pt" viewBox="0 0 225.000000 225.000000" preserveAspectRatio="xMidYMid meet">
   <g transform="translate(0.000000,225.000000) scale(0.100000,-0.100000)" fill="#000000" stroke="none">
      <path d="M948 2234 c-96 -15 -239 -59 -320 -100 -215 -107 -405 -297 -512 -512 -67 -133 -116 -343 -116 -497 0 -154 49 -364 116 -497 106 -213 299 -406 512 -512 133 -67 343 -116 497 -116 154 0 364 49 497 116 214 107 405 298 512 512 67 133 116 343 116 497 0 154 -49 364 -116 497 -107 215 -297 405 -512 512 -194 98 -449 136 -674 100z m622 -480 c78 -23 162 -109 185 -189 21 -71 16 -143 -15 -212 -31 -71 -354 -392 -430 -427 -103 -48 -229 -30 -314 46 -37 32 -46 46 -46 72 0 56 56 88 101 58 86 -58 96 -62 137 -62 24 0 55 6 70 14 41 22 350 337 362 369 46 126 -84 249 -204 192 -17 -8 -74 -57 -125 -109 -90 -91 -95 -94 -123 -84 -17 6 -59 8 -95 5 l-66 -5 124 125 c153 154 189 182 253 205 64 22 117 22 186 2z m-407 -420 c25 -8 66 -34 91 -56 37 -32 46 -46 46 -72 0 -56 -56 -88 -101 -58 -86 58 -96 62 -137 62 -24 0 -55 -6 -70 -14 -41 -22 -350 -337 -362 -369 -46 -126 84 -249 204 -192 17 8 74 57 125 109 90 91 95 94 123 84 17 -6 60 -8 96 -5 l66 5 -151 -149 c-161 -160 -201 -186 -297 -196 -88 -9 -158 18 -227 86 -68 69 -95 139 -86 227 10 100 35 136 225 326 201 201 242 228 348 228 33 0 81 -7 107 -16z" style="fill: rgb(255, 255, 255);"></path>
   </g>
</svg>
